<?xml version="1.0" encoding="UTF-8"?>
<svg version="1.1" xmlns="http://www.w3.org/2000/svg" width="510" height="428">
<path d="M0 0 C7.90271126 8.27027923 10.38663732 23.94588176 13.67382812 34.7253418 C14.5674884 37.64127672 15.48287873 40.54986234 16.3984375 43.45898438 C16.9727047 45.33291999 17.54566827 47.20725572 18.1171875 49.08203125 C18.39102264 49.94053177 18.66485779 50.79903229 18.94699097 51.68354797 C20.59003283 57.18932033 21.13818571 61.19718894 19.6875 66.8125 C16.18578509 72.46830905 12.45878857 74.18605622 6.26953125 76.1875 C5.43565384 76.47412506 4.60177643 76.76075012 3.74263 77.05606079 C1.00094718 77.9932662 -1.74905634 78.90287599 -4.5 79.8125 C-6.41803497 80.46239573 -8.33550847 81.11395069 -10.25244141 81.76708984 C-15.25705515 83.46628516 -20.26940108 85.14120199 -25.28521729 86.80700684 C-28.27095096 87.79869974 -31.255528 88.79379567 -34.23974609 89.79003906 C-49.99786313 95.04876064 -49.99786313 95.04876064 -56.41479492 97.15625 C-72.41337675 101.41619001 -72.41337675 101.41619001 -86.125 109.5625 C-88.1727137 115.16676908 -88.23224295 119.59675563 -85.9375 125.125 C-79.72397413 131.48646696 -68.86875546 133.35040414 -60.54736328 136.12548828 C-32.7556349 145.39787794 -5.74061792 156.13450834 20.6875 168.8125 C21.68716797 169.29041992 22.68683594 169.76833984 23.71679688 170.26074219 C59.34448089 187.39682229 97.63795355 209.59853188 121.6875 241.8125 C122.82832031 243.34003906 122.82832031 243.34003906 123.9921875 244.8984375 C140.40151072 267.71678932 146.25559913 292.43544714 141.78125 320.296875 C135.17000671 355.41649085 116.27181177 397.89819498 86.6875 419.8125 C77.70485315 425.29723141 68.15006 428.49852126 57.64453125 426.125 C19.8559744 415.49281519 -3.55867546 371.74002016 -23.3125 340.8125 C-23.80186035 340.04744141 -24.2912207 339.28238281 -24.79541016 338.49414062 C-31.09706416 328.62474816 -37.25254308 318.66884709 -43.375 308.6875 C-49.54858338 298.63264105 -55.8067742 288.65548731 -62.3125 278.8125 C-63.11264911 277.59929632 -63.91277762 276.38607906 -64.71289062 275.17285156 C-78.67369883 254.01998538 -92.6489116 233.10060656 -108.85498047 213.57861328 C-110.20079961 211.94785019 -111.52844185 210.30465583 -112.84765625 208.65234375 C-116.84478096 203.66793609 -120.95718618 199.0232567 -125.546875 194.578125 C-127.3125 192.8125 -127.3125 192.8125 -129.8125 189.75 C-132.99977714 186.00494936 -136.56515179 182.98286591 -140.3125 179.8125 C-141.73755859 178.55566406 -141.73755859 178.55566406 -143.19140625 177.2734375 C-167.37064958 156.07400383 -196.50391996 141.85254592 -229.3125 143.8125 C-264.87933298 146.90844776 -300.21925846 162.29391403 -331.8125 178.0234375 C-332.84552246 178.53406738 -333.87854492 179.04469727 -334.94287109 179.57080078 C-336.87627222 180.53387602 -338.80182161 181.51295533 -340.71728516 182.51123047 C-346.27863097 185.29138796 -351.05562387 186.9058733 -357.3125 185.8125 C-361.17970247 183.80728391 -364.26011566 181.70122822 -366.3125 177.8125 C-368.09642978 170.12994526 -366.20962663 163.61253621 -364.3046875 156.08203125 C-363.97821385 154.76040584 -363.65247165 153.43859955 -363.3274231 152.11662292 C-362.64560816 149.35827276 -361.95339096 146.60279718 -361.25390625 143.84887695 C-360.36136031 140.33034491 -359.49781664 136.80542377 -358.64224052 133.27774525 C-357.97699439 130.55070985 -357.29520037 127.82801643 -356.60855484 125.10629845 C-356.12621979 123.18059238 -355.65877281 121.25117685 -355.19161987 119.32173157 C-352.3389437 108.26482772 -352.3389437 108.26482772 -347.3125 104.8125 C-341.231924 101.6805989 -334.57499477 99.92375599 -328.0546875 97.91796875 C-326.17701287 97.33480266 -324.29933994 96.75163103 -322.42172909 96.16825962 C-320.40788309 95.54321341 -318.39351174 94.91988693 -316.3789978 94.29699707 C-309.14925607 92.06099584 -301.92423917 89.80979444 -294.69921875 87.55859375 C-293.94799807 87.32463017 -293.19677738 87.09066658 -292.42279243 86.84961319 C-275.98762526 81.72935414 -259.58590675 76.50598989 -243.1896553 71.26267624 C-236.63212481 69.16580418 -230.07400783 67.07076702 -223.515625 64.9765625 C-222.81218019 64.75193014 -222.10873539 64.52729778 -221.38397408 64.29585838 C-207.35779903 59.81795117 -193.31367452 55.39845013 -179.26156616 51.00265503 C-161.71468149 45.51356589 -144.18025757 39.98586103 -126.65010929 34.44361496 C-120.96618178 32.64690211 -115.28129567 30.85324628 -109.59594727 29.06103516 C-106.34778309 28.03689773 -103.09966137 27.01262576 -99.8515625 25.98828125 C-99.04580969 25.73420502 -98.24005688 25.48012878 -97.40988731 25.21835327 C-87.63177864 22.13423943 -77.85909287 19.03388099 -68.09434891 15.90769863 C-61.84554352 13.9071958 -55.59400001 11.91543646 -49.34037399 9.93005466 C-44.96843399 8.54128539 -40.60061807 7.14044902 -36.23555565 5.73022175 C-33.54687948 4.86496742 -30.85447151 4.01183306 -28.16087723 3.16202736 C-26.34421624 2.5849822 -24.53214648 1.99354327 -22.7203064 1.40153503 C-15.04348291 -1.00229852 -7.78104505 -2.78943125 0 0 Z " fill="#212121" transform="translate(367.3125,1.1875)"/>
</svg>
