<?xml version="1.0" encoding="UTF-8"?>
<svg version="1.1" xmlns="http://www.w3.org/2000/svg" width="556" height="121">
<path d="M0 0 C2.92269306 5.87376178 5.98794053 12.31905091 6 19 C3.61686815 22.17424292 0.75494828 22.95648653 -2.9453125 24.12109375 C-4.10417969 24.49943359 -5.26304688 24.87777344 -6.45703125 25.26757812 C-8.90831085 26.04942929 -11.36145849 26.82544703 -13.81640625 27.59570312 C-14.97269531 27.97533203 -16.12898438 28.35496094 -17.3203125 28.74609375 C-18.91770264 29.25160767 -18.91770264 29.25160767 -20.54736328 29.76733398 C-23.1736188 30.74766794 -23.1736188 30.74766794 -23.85498047 33.14086914 C-23.90283691 33.75438232 -23.95069336 34.36789551 -24 35 C-18.69575755 37.42169167 -13.35799497 39.66230564 -7.90966797 41.73828125 C9.4966297 48.42163947 30.73270379 57.50984615 39.12890625 75.40625 C42.61976513 85.29962585 40.48501376 94.312126 36.58984375 103.7734375 C33.16750193 110.71902556 29.13027582 117.50739228 22 121 C17.10270987 121.54414335 13.63537619 121.65585694 9.59765625 118.46875 C9.07042969 117.9840625 8.54320313 117.499375 8 117 C7.06994141 116.14921875 7.06994141 116.14921875 6.12109375 115.28125 C-1.80171685 107.2271221 -7.30356914 97.33520679 -13.2421875 87.80224609 C-30.10368036 59.40058309 -30.10368036 59.40058309 -57.05078125 42.42578125 C-68.87663816 39.84257804 -81.57863536 45.30467578 -91.90063477 50.71313477 C-95.77302174 52.68559662 -98.65872987 53.43864245 -103 53 C-104 52 -104 52 -104.13696289 48.91308594 C-103.8999823 42.14245324 -102.97462863 36.08656118 -100 30 C-96.12352424 26.92611524 -91.783903 25.92475277 -87.0625 24.75 C-85.66762847 24.35250875 -84.27469706 23.94816073 -82.88354492 23.5378418 C-79.60829902 22.57809946 -76.32524905 21.65230793 -73.03710938 20.73779297 C-65.79104874 18.68814292 -58.6262285 16.38612867 -51.453125 14.09765625 C-48.69025172 13.21900578 -45.92703182 12.34144721 -43.16381836 11.46386719 C-42.47486449 11.24501799 -41.78591063 11.02616879 -41.07607937 10.80068779 C-38.98831769 10.13764897 -36.90043654 9.47498797 -34.8125 8.8125 C-34.12326069 8.59371689 -33.43402138 8.37493378 -32.72389603 8.14952087 C-28.07660399 6.67594869 -23.42423055 5.21953616 -18.76953125 3.76953125 C-17.57076355 3.38886002 -16.37199585 3.00818878 -15.13690186 2.61598206 C-13.46389008 2.09801308 -13.46389008 2.09801308 -11.75708008 1.56958008 C-10.78628006 1.26522537 -9.81548004 0.96087067 -8.81526184 0.64729309 C-5.79170361 -0.04789211 -3.09200064 -0.11488653 0 0 Z " fill="#167037" transform="translate(104,0)"/>
<path d="M0 0 C4.29 0 8.58 0 13 0 C13.33 15.51 13.66 31.02 14 47 C20.89693641 39.47393058 20.89693641 39.47393058 27.69726562 31.86132812 C32.69915772 26.63584749 36.11595357 23.43306917 43.57849121 23.2166748 C46.75628808 23.30983383 49.84746634 23.58355171 53 24 C51.28974534 27.66434951 49.24002076 29.9345589 46.3125 32.75 C41.12232337 37.8350211 36.04097911 42.93853133 32 49 C32.4532666 49.6798999 32.9065332 50.3597998 33.37353516 51.06030273 C43.9140625 66.87109375 43.9140625 66.87109375 46.00488281 70.01513672 C47.28100147 71.92431767 48.56599131 73.8276176 49.86230469 75.72314453 C50.41047852 76.5273584 50.95865234 77.33157227 51.5234375 78.16015625 C52.00474121 78.85890869 52.48604492 79.55766113 52.98193359 80.27758789 C54 82 54 82 54 84 C48.98315896 84.74636861 43.93970961 85.41166644 39 84 C34.80986802 80.49177856 32.3368892 76.18946295 29.6875 71.5 C28.6073253 69.70972158 27.51255222 67.92917514 26.41377258 66.15026855 C25.43430761 64.54666368 24.49091898 62.92118893 23.54956055 61.29492188 C23.03820557 60.53759766 22.52685059 59.78027344 22 59 C19.61748927 58.79572549 19.61748927 58.79572549 16.9375 61.375 C11.81304229 67.34729986 13.01572936 76.56787866 13 84 C8.71 84 4.42 84 0 84 C0 56.28 0 28.56 0 0 Z " fill="#167037" transform="translate(390,17)"/>
<path d="M0 0 C4.98239711 2.91470231 9.2850511 7.20297984 10.99656677 12.84197998 C11.46232036 15.12147605 11.5577077 17.16771965 11.55102539 19.49316406 C11.55094986 20.37377502 11.55087433 21.25438599 11.55079651 22.16168213 C11.54563522 23.10348328 11.54047394 24.04528442 11.53515625 25.015625 C11.5337413 25.98659119 11.53232635 26.95755737 11.53086853 27.95794678 C11.52527663 31.05532935 11.51272559 34.15263932 11.5 37.25 C11.49498395 39.35156146 11.49042123 41.45312404 11.48632812 43.5546875 C11.47530985 48.70315292 11.45805074 53.85156416 11.4375 59 C7.1475 59 2.8575 59 -1.5625 59 C-2.0575 57.02 -2.0575 57.02 -2.5625 55 C-3.17996094 55.34933594 -3.79742187 55.69867188 -4.43359375 56.05859375 C-12.64926324 60.47279669 -19.35149024 62.12726476 -28.4921875 59.72265625 C-32.88712236 58.18857521 -35.76716724 55.83719238 -38.9375 52.5 C-41.33528066 47.33554934 -41.31729661 42.59935851 -40.5625 37 C-37.92896151 31.4290532 -33.88956577 27.2098421 -28.0703125 25.09375 C-19.72154611 22.83121168 -11.14162571 21.92541331 -2.5625 21 C-3.00362087 18.01018075 -3.35676592 15.72227961 -4.5625 13 C-8.89341805 10.14159409 -12.61981335 9.47964667 -17.6328125 10.34765625 C-21.52890775 11.66475728 -24.70962662 14.29425324 -26.5625 18 C-31.31731646 17.42365861 -34.53298212 15.44931479 -38.5625 13 C-35.25593425 6.11132136 -30.90996256 1.76804884 -23.7578125 -1.140625 C-16.07152406 -3.20784194 -7.32884345 -3.30298408 0 0 Z M-15.125 33.25 C-15.78435547 33.35957031 -16.44371094 33.46914062 -17.12304688 33.58203125 C-21.44633644 34.40758403 -23.85159057 35.50978736 -26.5625 39 C-27.5535892 41.83168343 -27.7756106 43.32192083 -26.875 46.1875 C-25.22815308 48.46171717 -24.24230529 49.13087396 -21.5625 50 C-15.63481857 50.68396324 -11.37640436 49.36242343 -6.5625 46 C-3.4460955 42.57195504 -2.34462644 40.17089124 -2.3125 35.625 C-2.395 34.42875 -2.4775 33.2325 -2.5625 32 C-6.86215545 31.83431 -10.91778725 32.44744418 -15.125 33.25 Z " fill="#167037" transform="translate(298.5625,42)"/>
<path d="M0 0 C5.75694507 3.63223775 9.97497261 7.94025329 12.22265625 14.40234375 C10.65013975 15.29663749 9.06411884 16.16721802 7.47265625 17.02734375 C6.5909375 17.51460937 5.70921875 18.001875 4.80078125 18.50390625 C2.22265625 19.40234375 2.22265625 19.40234375 0.05078125 18.70703125 C-2.50410698 16.88367085 -4.56064932 14.61903818 -6.77734375 12.40234375 C-10.39870839 9.77997625 -14.46940315 9.87739161 -18.77734375 10.40234375 C-24.04328719 12.26091202 -26.57130143 15.00548571 -29.77734375 19.40234375 C-31.76501202 25.36534857 -31.68377115 32.15598018 -29.33984375 37.96484375 C-28.82421875 38.76921875 -28.30859375 39.57359375 -27.77734375 40.40234375 C-27.44734375 41.39234375 -27.11734375 42.38234375 -26.77734375 43.40234375 C-24.35351298 44.57187791 -24.35351298 44.57187791 -21.77734375 45.40234375 C-21.11734375 45.73234375 -20.45734375 46.06234375 -19.77734375 46.40234375 C-14.0987145 46.99292119 -9.60811703 46.6960528 -4.77734375 43.40234375 C-2.93584658 41.4877713 -1.38471175 39.52974258 0.22265625 37.40234375 C4.27547337 38.62761404 7.66626389 40.10114869 11.22265625 42.40234375 C10.79992978 47.19324372 8.8319408 50.35245999 5.22265625 53.40234375 C-4.61929314 59.56251586 -12.80571307 61.58653184 -24.140625 59.18359375 C-32.60524209 56.67555906 -38.68214778 50.65230742 -43.1015625 43.15625 C-47.0681299 34.68032176 -47.34536171 24.83616052 -44.21484375 16.02734375 C-40.47722715 7.99741126 -34.34427091 1.60044374 -26.046875 -1.67578125 C-17.65588226 -4.04170035 -7.93804731 -3.72385859 0 0 Z " fill="#167037" transform="translate(366.77734375,42.59765625)"/>
<path d="M0 0 C18.81 0 37.62 0 57 0 C57 3.96 57 7.92 57 12 C50.07 12 43.14 12 36 12 C36 35.1 36 58.2 36 82 C31.38 82 26.76 82 22 82 C22 58.9 22 35.8 22 12 C14.74 12 7.48 12 0 12 C0 8.04 0 4.08 0 0 Z " fill="#167036" transform="translate(162,19)"/>
<path d="M0 0 C2.14576637 -0.02685938 4.29162645 -0.04633088 6.4375 -0.0625 C7.63246094 -0.07410156 8.82742188 -0.08570312 10.05859375 -0.09765625 C13 0 13 0 14 1 C14.14393457 5.33530918 14.04212061 9.66157731 14 14 C18.29 14 22.58 14 27 14 C27 17.96 27 21.92 27 26 C22.71 26 18.42 26 14 26 C14.04412307 30.64547409 14.1139203 35.289585 14.20751953 39.93432617 C14.23574193 41.51429392 14.25695025 43.09440318 14.27099609 44.67456055 C14.29240965 46.94653845 14.33904534 49.21681271 14.390625 51.48828125 C14.39185364 52.19463211 14.39308228 52.90098297 14.39434814 53.6287384 C14.49151137 56.88313566 14.57394549 58.56651684 16.90429688 60.9375 C20.26009476 62.63885513 23.26829769 62.68902481 27 63 C27 66.63 27 70.26 27 74 C23.00439202 75.99780399 18.07575946 75.46907732 13.8046875 74.50390625 C7.85650526 72.50233162 4.32215259 69.53306638 1.375 63.88671875 C-1.11392254 56.98285599 -0.30980103 49.23806737 -0.1875 42 C-0.17242973 40.44662752 -0.15874546 38.89324094 -0.14648438 37.33984375 C-0.11365497 33.55954385 -0.06200254 29.77992937 0 26 C-3.3 26 -6.6 26 -10 26 C-10 22.04 -10 18.08 -10 14 C-8.88625 13.71125 -7.7725 13.4225 -6.625 13.125 C-2.99708908 12.30758671 -2.99708908 12.30758671 -1 10 C-0.53837573 7.56747339 -0.53837573 7.56747339 -0.375 4.875 C-0.30023437 3.96492188 -0.22546875 3.05484375 -0.1484375 2.1171875 C-0.09945312 1.41851563 -0.05046875 0.71984375 0 0 Z " fill="#167037" transform="translate(529,27)"/>
<path d="M0 0 C4.29 0 8.58 0 13 0 C13 4.62 13 9.24 13 14 C17.62 14 22.24 14 27 14 C27 17.96 27 21.92 27 26 C22.38 26 17.76 26 13 26 C13.0970598 30.34214875 13.19986186 34.68337018 13.31738281 39.02490234 C13.35560666 40.50105536 13.39047103 41.97729943 13.421875 43.45361328 C13.46766986 45.57878094 13.52563837 47.70332542 13.5859375 49.828125 C13.63306885 51.7447998 13.63306885 51.7447998 13.68115234 53.70019531 C13.97495072 56.74076107 14.2475407 58.52788817 16 61 C18.63571568 61.91956802 18.63571568 61.91956802 21.625 62.25 C23.39875 62.4975 25.1725 62.745 27 63 C27 66.63 27 70.26 27 74 C22.22310934 76.38844533 15.63700767 75.47769772 10.6875 73.875 C5.84836785 71.8024828 3.27398628 68.48552226 0.87939453 63.8137207 C-0.26848795 60.1409429 -0.24841603 56.66117885 -0.1953125 52.85546875 C-0.1924826 52.08568192 -0.18965271 51.31589508 -0.18673706 50.52278137 C-0.17559157 48.07752575 -0.15049781 45.63264388 -0.125 43.1875 C-0.1149629 41.52409385 -0.10583833 39.86068193 -0.09765625 38.19726562 C-0.07567073 34.13136763 -0.04118014 30.06574706 0 26 C-3.63 26 -7.26 26 -11 26 C-11 22.04 -11 18.08 -11 14 C-9.72125 13.7525 -8.4425 13.505 -7.125 13.25 C-3.9467879 12.48535754 -3.9467879 12.48535754 -1.5625 10.375 C-0.74644699 6.92944286 -0.35246468 3.52464679 0 0 Z " fill="#167037" transform="translate(485,27)"/>
<path d="M0 0 C0 3.96 0 7.92 0 12 C-1.711875 12.2475 -3.42375 12.495 -5.1875 12.75 C-9.7868769 13.57871656 -12.71453212 14.49550093 -16 18 C-17.71688134 21.43376268 -17.24509002 25.38114365 -17.31640625 29.1640625 C-17.33718735 30.07127045 -17.35796844 30.97847839 -17.37937927 31.91317749 C-17.44487135 34.8170398 -17.50375814 37.72099405 -17.5625 40.625 C-17.60568555 42.59115542 -17.64929985 44.55730147 -17.69335938 46.5234375 C-17.80055239 51.34886362 -17.90182081 56.1743824 -18 61 C-22.62 61 -27.24 61 -32 61 C-32 41.2 -32 21.4 -32 1 C-27.71 1 -23.42 1 -19 1 C-18.67 2.32 -18.34 3.64 -18 5 C-17.113125 4.360625 -16.22625 3.72125 -15.3125 3.0625 C-10.13489594 -0.1612912 -6.0276524 -0.11818926 0 0 Z " fill="#167037" transform="translate(252,40)"/>
<path d="M0 0 C4.29 0 8.58 0 13 0 C13 19.8 13 39.6 13 60 C8.71 60 4.42 60 0 60 C0 40.2 0 20.4 0 0 Z " fill="#167036" transform="translate(452,41)"/>
<path d="M0 0 C4.29 0 8.58 0 13 0 C13 4.95 13 9.9 13 15 C8.71 15 4.42 15 0 15 C0 10.05 0 5.1 0 0 Z " fill="#167036" transform="translate(452,19)"/>
</svg>
